<?xml version="1.0" encoding="UTF-8" standalone="no"?>
<!-- Created with Inkscape (http://www.inkscape.org/) -->
<svg xmlns:dc="http://purl.org/dc/elements/1.1/" xmlns:cc="http://creativecommons.org/ns#" xmlns:rdf="http://www.w3.org/1999/02/22-rdf-syntax-ns#" xmlns:svg="http://www.w3.org/2000/svg" xmlns="http://www.w3.org/2000/svg" xmlns:sodipodi="http://sodipodi.sourceforge.net/DTD/sodipodi-0.dtd" xmlns:inkscape="http://www.inkscape.org/namespaces/inkscape" version="1.1" id="svg2" xml:space="preserve" width="880" height="324" viewBox="0 0 880 324" sodipodi:docname="Tron Logo 2019_Inkscape.svg" inkscape:version="0.92.4 (5da689c313, 2019-01-14)"><metadata id="metadata8"><rdf:RDF><cc:Work rdf:about=""><dc:format>image/svg+xml</dc:format><dc:type rdf:resource="http://purl.org/dc/dcmitype/StillImage"/><dc:title/></cc:Work></rdf:RDF></metadata><defs id="defs6"/><sodipodi:namedview pagecolor="#ffffff" bordercolor="#666666" borderopacity="1" objecttolerance="10" gridtolerance="10" guidetolerance="10" inkscape:pageopacity="0" inkscape:pageshadow="2" inkscape:window-width="1738" inkscape:window-height="1078" id="namedview4" showgrid="false" inkscape:zoom="1.1249426" inkscape:cx="421.95615" inkscape:cy="156.97837" inkscape:window-x="91" inkscape:window-y="0" inkscape:window-maximized="0" inkscape:current-layer="g12"/><g id="g10" inkscape:groupmode="layer" inkscape:label="ink_ext_XXXXXX" transform="matrix(1.3333333,0,0,-1.3333333,0,324)"><g id="g12" transform="scale(0.1)"><path d="M 3.65625,31.8633 V 100.289 C 11.5586,93.332 21,87.1953 31.8555,81.6484 42.8281,76.1094 54.3867,71.3867 66.4258,67.6133 78.5742,63.832 90.7266,60.8867 102.879,58.7617 c 12.269,-2.0078 23.598,-3.0703 33.863,-3.0703 35.746,0 62.41,6.6133 80.102,19.9414 17.586,13.211 26.433,32.3242 26.433,57.1052 0,13.45 -2.949,25.012 -8.847,34.918 -5.903,9.914 -14.043,19 -24.309,27.141 -10.379,8.258 -22.648,16.043 -36.805,23.598 -14.277,7.429 -29.496,15.339 -45.898,23.593 -17.223,8.731 -33.3907,17.7 -48.3711,26.664 -14.9844,8.965 -27.961,18.879 -39.0508,29.731 -11.0938,10.855 -19.7031,23.125 -26.0742,36.812 -6.37112,13.688 -9.55862,29.731 -9.55862,48.133 0,22.66 4.95313,42.242 14.86332,58.996 9.9101,16.754 23.0039,30.438 39.0547,41.297 16.164,10.848 34.5664,18.871 55.2147,24.184 20.531,5.308 41.649,8.023 63.004,8.023 48.84,0 84.477,-5.898 106.891,-17.699 V 432.77 c -29.254,20.293 -66.899,30.433 -112.672,30.433 -12.742,0 -25.367,-1.297 -38.11,-3.89 -12.625,-2.715 -23.945,-7.079 -33.8551,-12.977 -9.9141,-6.016 -17.9375,-13.805 -24.1953,-23.246 -6.25,-9.434 -9.3203,-20.883 -9.3203,-34.567 0,-12.625 2.3672,-23.597 7.0781,-32.804 4.7227,-9.196 11.6875,-17.574 20.8867,-25.242 9.2029,-7.551 20.5269,-14.985 33.7459,-22.063 13.211,-7.195 28.547,-14.984 45.774,-23.48 17.816,-8.848 34.57,-18.051 50.496,-27.727 15.929,-9.676 29.847,-20.41 41.765,-32.094 12.036,-11.793 21.473,-24.773 28.551,-39.05 7.082,-14.274 10.504,-30.672 10.504,-49.079 0,-24.421 -4.715,-45.191 -14.273,-62.0582 -9.559,-16.9922 -22.539,-30.793 -38.7,-41.2969 C 234.781,23.0156 216.023,15.3438 194.902,10.625 173.668,5.90625 151.371,3.54297 127.773,3.54297 c -7.789,0 -17.46,0.59375 -29.0191,1.89062 C 87.3008,6.73438 75.5078,8.5 63.4727,10.9766 51.5586,13.3359 40.2305,16.4063 29.4922,19.9453 18.7539,23.4844 10.1445,27.4922 3.65625,31.8633 Z M 636.637,28.0859 C 609.504,11.6875 577.168,3.54297 539.883,3.54297 c -50.492,0 -91.199,16.40233 -122.231,49.20313 -30.906,32.7969 -46.484,75.3909 -46.484,127.7739 0,58.281 16.754,105.121 50.145,140.523 33.386,35.273 77.992,52.965 133.789,52.965 31.152,0 58.519,-5.66 82.242,-17.223 v -58.047 c -26.313,18.41 -54.391,27.606 -84.367,27.606 -36.098,0 -65.829,-12.977 -88.954,-38.934 -23.125,-25.836 -34.804,-59.933 -34.804,-102.051 0,-41.531 10.972,-74.211 32.679,-98.1637 21.829,-23.9492 50.965,-35.9844 87.665,-35.9844 30.91,0 59.941,10.2657 87.074,30.793 z M 751.316,455.66 c -10.031,0 -18.765,3.418 -25.843,10.379 -7.2,6.84 -10.735,15.574 -10.735,26.188 0,10.621 3.535,19.468 10.735,26.433 7.078,7.078 15.812,10.613 25.843,10.613 10.379,0 19.219,-3.535 26.543,-10.613 7.192,-6.965 10.852,-15.812 10.852,-26.433 0,-10.145 -3.66,-18.758 -10.852,-25.836 -7.324,-7.2 -16.164,-10.731 -26.543,-10.731 z M 779.035,11.8086 h -56.75 V 365.754 h 56.75 z M 1178.17,174.621 H 928.289 c 0.938,-39.406 11.559,-69.848 31.848,-91.3202 20.297,-21.3516 48.133,-32.0899 83.653,-32.0899 39.88,0 76.46,13.0977 109.96,39.4063 V 37.4023 C 1122.6,14.7578 1081.43,3.54297 1030.34,3.54297 c -50.024,0 -89.317,16.04683 -117.863,48.14063 -28.676,32.207 -42.954,77.3944 -42.954,135.6794 0,55.098 15.692,99.934 46.84,134.617 31.274,34.688 70.086,52.028 116.337,52.028 46.37,0 82.12,-14.977 107.48,-44.949 25.37,-29.848 37.99,-71.496 37.99,-124.707 z m -58.04,48.016 c -0.24,32.679 -8.15,58.168 -23.59,76.457 -15.59,18.164 -37.18,27.25 -64.9,27.25 -26.66,0 -49.441,-9.551 -68.085,-28.668 -18.637,-19.113 -30.196,-44.129 -34.563,-75.039 z M 1557.84,11.8086 h -56.75 V 213.672 c 0,75.156 -27.38,112.672 -82.23,112.672 -28.32,0 -51.79,-10.614 -70.32,-31.969 -18.64,-21.355 -27.85,-48.254 -27.85,-80.703 V 11.8086 h -56.74 V 365.754 h 56.74 v -58.758 h 1.42 c 26.67,44.715 65.37,67.012 116.09,67.012 38.71,0 68.32,-12.5 88.85,-37.516 20.52,-24.894 30.79,-61.113 30.79,-108.304 z m 348.05,16.2773 c -27.14,-16.3984 -59.47,-24.54293 -96.75,-24.54293 -50.5,0 -91.19,16.40233 -122.22,49.20313 -30.91,32.7969 -46.49,75.3909 -46.49,127.7739 0,58.281 16.75,105.121 50.14,140.523 33.39,35.273 77.98,52.965 133.79,52.965 31.15,0 58.52,-5.66 82.24,-17.223 v -58.047 c -26.31,18.41 -54.39,27.606 -84.36,27.606 -36.1,0 -65.84,-12.977 -88.96,-38.934 -23.12,-25.836 -34.8,-59.933 -34.8,-102.051 0,-41.531 10.97,-74.211 32.68,-98.1637 21.82,-23.9492 50.97,-35.9844 87.66,-35.9844 30.91,0 59.93,10.2657 87.07,30.793 z M 2276,174.621 h -249.89 c 0.94,-39.406 11.56,-69.848 31.86,-91.3202 20.3,-21.3516 48.14,-32.0899 83.65,-32.0899 39.88,0 76.45,13.0977 109.96,39.4063 V 37.4023 C 2220.43,14.7578 2179.26,3.54297 2128.17,3.54297 c -50.03,0 -89.31,16.04683 -117.87,48.14063 -28.67,32.207 -42.94,77.3944 -42.94,135.6794 0,55.098 15.69,99.934 46.84,134.617 31.27,34.688 70.08,52.028 116.33,52.028 46.36,0 82.11,-14.977 107.48,-44.949 25.37,-29.848 37.99,-71.496 37.99,-124.707 z m -58.04,48.016 c -0.24,32.679 -8.15,58.168 -23.61,76.457 -15.56,18.164 -37.16,27.25 -64.88,27.25 -26.67,0 -49.44,-9.551 -68.08,-28.668 -18.64,-19.113 -30.2,-44.129 -34.57,-75.039 z m 366.81,233.023 c -10.04,0 -18.77,3.418 -25.84,10.379 -7.2,6.84 -10.74,15.574 -10.74,26.188 0,10.621 3.54,19.468 10.74,26.433 7.07,7.078 15.8,10.613 25.84,10.613 10.38,0 19.23,-3.535 26.54,-10.613 7.19,-6.965 10.85,-15.812 10.85,-26.433 0,-10.145 -3.66,-18.758 -10.85,-25.836 -7.31,-7.2 -16.16,-10.731 -26.54,-10.731 z m 27.72,-443.8514 h -56.74 V 365.754 h 56.74 z m 408.57,0 h -56.75 V 213.672 c 0,75.156 -27.37,112.672 -82.24,112.672 -28.31,0 -51.79,-10.614 -70.31,-31.969 -18.64,-21.355 -27.84,-48.254 -27.84,-80.703 V 11.8086 h -56.75 V 365.754 h 56.75 v -58.758 h 1.42 c 26.66,44.715 65.35,67.012 116.09,67.012 38.7,0 68.3,-12.5 88.84,-37.516 20.53,-24.894 30.79,-61.113 30.79,-108.304 z M 3622.54,454.945 H 3479.43 V 11.8086 h -58.06 V 454.945 h -142.75 v 52.504 h 343.92 z m 193.37,-146.531 c -9.91,7.543 -24.18,11.324 -42.83,11.324 -24.3,0 -44.47,-11.324 -60.76,-34.211 -16.16,-22.773 -24.3,-53.922 -24.3,-93.324 V 11.8086 h -56.75 V 365.754 h 56.75 V 292.84 h 1.41 c 8.03,24.894 20.29,44.242 36.94,58.285 16.62,13.918 35.15,20.879 55.68,20.879 14.75,0 25.95,-1.645 33.86,-4.832 z M 4130.8,11.8086 h -56.74 v 55.332 h -1.3 C 4048.11,24.668 4011.77,3.54297 3963.87,3.54297 c -35.28,0 -62.89,9.32423 -82.83,27.96093 -19.95,18.6484 -29.85,43.4219 -29.85,74.3321 0,66.07 38.93,104.652 116.8,115.383 l 106.07,14.871 c 0,60.176 -24.31,90.254 -72.92,90.254 -42.58,0 -81.05,-14.504 -115.39,-43.535 v 58.05 c 34.81,22.18 74.81,33.149 120.23,33.149 83.17,0 124.82,-44.004 124.82,-132.02 z m -56.74,179.0894 -85.31,-11.789 c -26.3,-3.66 -46.13,-10.148 -59.45,-19.593 -13.34,-9.317 -20.06,-25.832 -20.06,-49.547 0,-17.2346 6.13,-31.3831 18.51,-42.3557 12.28,-10.9766 28.68,-16.4024 49.21,-16.4024 28.08,0 51.32,9.9102 69.62,29.4922 18.39,19.7069 27.48,44.7149 27.48,74.9179 z M 4531.48,11.8086 h -56.75 V 213.672 c 0,75.156 -27.37,112.672 -82.24,112.672 -28.31,0 -51.79,-10.614 -70.32,-31.969 -18.63,-21.355 -27.84,-48.254 -27.84,-80.703 V 11.8086 h -56.75 V 365.754 h 56.75 v -58.758 h 1.42 c 26.66,44.715 65.36,67.012 116.09,67.012 38.7,0 68.31,-12.5 88.84,-37.516 20.53,-24.894 30.8,-61.113 30.8,-108.304 z m 85.42,12.7383 v 60.8789 c 30.8,-22.7695 64.89,-34.2149 101.93,-34.2149 49.8,0 74.69,16.6329 74.69,49.7891 0,9.434 -2.13,17.465 -6.38,23.949 -4.35,6.61 -10.03,12.387 -17.34,17.457 -7.19,5.082 -15.81,9.68 -25.6,13.692 -9.8,4.007 -20.3,8.257 -31.62,12.621 -15.69,6.254 -29.38,12.511 -41.29,18.883 -11.8,6.246 -21.71,13.449 -29.74,21.351 -7.9,8.024 -13.91,16.992 -17.93,27.137 -4.01,10.148 -6.01,22.066 -6.01,35.629 0,16.64 3.77,31.265 11.32,44.129 7.67,12.738 17.81,23.476 30.45,32.09 12.73,8.609 27.13,15.222 43.41,19.589 16.16,4.364 33.03,6.481 50.26,6.481 30.66,0 58.05,-5.309 82.24,-15.805 v -57.457 c -25.96,17.109 -55.93,25.598 -89.79,25.598 -10.62,0 -20.17,-1.176 -28.79,-3.656 -8.5,-2.36 -15.81,-5.782 -21.94,-10.141 -6.03,-4.371 -10.75,-9.676 -14.16,-15.695 -3.31,-6.137 -4.96,-12.864 -4.96,-20.293 0,-9.204 1.65,-16.871 4.96,-23.125 3.41,-6.254 8.25,-11.801 14.75,-16.637 6.37,-4.832 14.27,-9.207 23.47,-13.094 9.21,-3.894 19.71,-8.14 31.5,-12.75 15.58,-6.008 29.73,-12.144 42.13,-18.515 12.38,-6.375 23,-13.454 31.85,-21.477 8.73,-7.902 15.45,-17.102 20.17,-27.488 4.72,-10.383 7.09,-22.653 7.09,-36.93 0,-17.5782 -3.9,-32.7969 -11.57,-45.6563 -7.79,-12.8594 -18.05,-23.5976 -30.91,-32.0937 -12.98,-8.6133 -27.84,-14.8633 -44.6,-19.11331 -16.86,-4.125 -34.45,-6.13672 -52.97,-6.13672 -36.34,0 -67.96,6.96483 -94.62,21.00393 z m 378.48,-12.7383 h -56.74 V 535.77 h 56.74 z m 368.11,0 h -56.75 v 55.332 h -1.3 C 5280.79,24.668 5244.45,3.54297 5196.55,3.54297 c -35.28,0 -62.89,9.32423 -82.84,27.96093 -19.94,18.6484 -29.83,43.4219 -29.83,74.3321 0,66.07 38.92,104.652 116.79,115.383 l 106.07,14.871 c 0,60.176 -24.3,90.254 -72.92,90.254 -42.58,0 -81.05,-14.504 -115.39,-43.535 v 58.05 c 34.81,22.18 74.82,33.149 120.23,33.149 83.19,0 124.83,-44.004 124.83,-132.02 z m -56.75,179.0894 -85.31,-11.789 c -26.3,-3.66 -46.11,-10.148 -59.45,-19.593 -13.34,-9.317 -20.06,-25.832 -20.06,-49.547 0,-17.2346 6.13,-31.3831 18.53,-42.3557 12.26,-10.9766 28.66,-16.4024 49.19,-16.4024 28.09,0 51.32,9.9102 69.62,29.4922 18.4,19.7069 27.48,44.7149 27.48,74.9179 z M 5634.5,15.2266 c -13.34,-7.31644 -31.04,-10.97269 -52.86,-10.97269 -62.06,0 -92.97,34.57029 -92.97,103.70309 v 209.422 h -60.88 v 48.375 h 60.88 v 86.359 l 56.62,18.407 V 365.754 h 89.21 v -48.375 h -89.21 V 117.871 c 0,-23.7147 4.02,-40.5858 12.16,-50.7304 8.03,-10.1445 21.35,-15.2226 40.12,-15.2226 14.28,0 26.54,3.8945 36.93,11.7968 z M 5739.14,455.66 c -10.03,0 -18.76,3.418 -25.84,10.379 -7.19,6.84 -10.73,15.574 -10.73,26.188 0,10.621 3.54,19.468 10.73,26.433 7.08,7.078 15.81,10.613 25.84,10.613 10.38,0 19.24,-3.535 26.55,-10.613 7.2,-6.965 10.86,-15.812 10.86,-26.433 0,-10.145 -3.66,-18.758 -10.86,-25.836 -7.31,-7.2 -16.17,-10.731 -26.55,-10.731 z m 27.73,-443.8514 h -56.74 V 365.754 h 56.74 z M 6029.5,3.54297 c -52.27,0 -94.03,16.52343 -125.3,49.55473 -31.14,33.0351 -46.83,76.9293 -46.83,131.5543 0,59.461 16.27,105.828 48.73,139.332 32.55,33.395 76.44,50.024 131.78,50.024 52.73,0 93.91,-16.16 123.53,-48.723 29.62,-32.445 44.35,-77.515 44.35,-135.09 0,-56.511 -15.92,-101.6989 -47.78,-135.6833 C 6126.01,20.5352 6083.19,3.54297 6029.5,3.54297 Z m 4.13,322.80103 c -36.34,0 -65.12,-12.387 -86.36,-37.164 -21.23,-24.774 -31.86,-58.871 -31.86,-102.524 0,-41.886 10.73,-74.918 32.22,-99.1091 21.47,-24.1797 50.13,-36.336 86,-36.336 36.69,0 64.9,11.918 84.59,35.6329 19.71,23.7152 29.5,57.4532 29.5,101.2262 0,44.246 -9.79,78.34 -29.5,102.293 -19.69,24.067 -47.9,35.981 -84.59,35.981 z M 6590.27,11.8086 h -56.75 V 213.672 c 0,75.156 -27.37,112.672 -82.23,112.672 -28.32,0 -51.79,-10.614 -70.32,-31.969 -18.63,-21.355 -27.85,-48.254 -27.85,-80.703 V 11.8086 h -56.74 V 365.754 h 56.74 v -58.758 h 1.42 c 26.67,44.715 65.37,67.012 116.09,67.012 38.71,0 68.32,-12.5 88.84,-37.516 20.53,-24.894 30.8,-61.113 30.8,-108.304 V 11.8086" style="fill:#003c78;fill-opacity:1;fill-rule:nonzero;stroke:none" id="path14" inkscape:connector-curvature="0"/><path d="m 586.598,1040.91 c -126.52,34.91 -237.434,105.4 -321.246,202.64 l 75.832,43 c 98.304,-106.78 232.64,-170.34 372.769,-182.02 l 3.293,396.68 85.09,48.27 -3.125,-445.76 c 82.98,5.5 165.988,29.18 242.969,72.98 76.89,43.57 139.9,102.69 187.17,171.17 l -384.272,225.69 85.418,48.42 L 1272,1421.3 c 74.21,151.43 80.19,333.3 4.14,494.43 l -387.523,-219.91 -384.191,-217.05 0.461,-0.73 -217.34,-123.34 c 0.203,-0.08 0.203,-0.4 0.535,-0.48 l -74.273,-42.02 c -7.774,11.93 -15.461,24.26 -22.399,36.84 -86.445,152.02 -108.41,328.61 -62.004,497.3 46.539,168.62 156.055,309.13 308.27,395.37 151.832,86.48 328.609,108.36 497.347,61.91 126.647,-35.03 237.437,-105.57 321.607,-203.15 l -75.96,-42.92 c -98.21,106.97 -232.791,170.67 -373.252,182.35 l -2.914,-395.03 -85.215,-48.36 3.246,444.21 c -83.109,-5.43 -166.113,-29.18 -242.969,-73 -77.007,-43.74 -140.023,-102.6 -187.246,-171.18 l 382.989,-224.76 -85.457,-48.42 -340.528,199.69 c -73.918,-151.27 -80.086,-333.29 -3.711,-494.43 l 430.157,244.33 -0.461,0.17 128.629,72.68 v -0.25 l 69.417,39.46 125.75,71.11 v 0.26 l 234.775,133.35 c 0,0.16 0,0.16 0,0.16 l 74.27,42.01 c 7.69,-11.84 15.21,-23.84 22.06,-36.5 86.63,-152.1 108.45,-328.69 62.01,-497.39 -46.67,-168.54 -155.9,-308.96 -308.1,-395.37 -152.265,-86.32 -328.737,-108.261 -497.522,-61.73 z m 187.57,1388.3 h -26.77 C 650.02,2427.53 555.211,2407.61 465.875,2369.88 375.844,2331.74 294.988,2277.21 225.316,2207.76 155.879,2138.03 101.172,2057.14 63.2188,1966.87 23.7695,1873.65 3.65625,1774.41 3.65625,1672.22 c 0,-102.11 20.11325,-201.43 59.56255,-294.65 37.9532,-90.19 92.6602,-171.08 162.0972,-240.89 69.672,-69.39 150.528,-123.99 240.559,-162.043 93.422,-39.543 192.832,-59.516 294.902,-59.516 102.133,0 201.551,19.973 294.763,59.516 90.19,38.053 171.1,92.653 240.77,162.043 69.4,69.81 124.27,150.7 162.1,240.89 39.57,93.22 59.56,192.54 59.56,294.65 0,102.19 -19.99,201.43 -59.56,294.65 -37.83,90.27 -92.7,171.16 -162.1,240.89 -69.67,69.45 -150.58,123.98 -240.77,162.12 -89.138,37.73 -183.942,57.65 -281.372,59.33" style="fill:#bd2716;fill-opacity:1;fill-rule:nonzero;stroke:none" id="path16" inkscape:connector-curvature="0"/><path d="m 3438.21,1832.36 c -15.78,-25.88 -36.91,-44.96 -64.91,-57.95 -28.89,-13.24 -84.98,-20.07 -166.32,-20.07 h -44.19 v 330.1 h 30.59 c 79.51,0 136.63,-5.93 169.73,-17.34 31.57,-11.02 55.21,-29.11 72.68,-55.41 17.3,-26.89 25.91,-56.08 25.91,-89.36 0,-33.64 -8.02,-63.82 -23.49,-89.97 z m 296.09,-502.89 c -64.95,105.89 -116.14,181.45 -152.46,224.38 -27.5,32.78 -56.07,60.9 -85.22,83.6 51.84,25.57 93.23,60.58 123.4,104.4 35.97,52.88 54.43,116.18 54.43,187.94 0,105.49 -37.37,190.67 -111.32,252.98 -72.68,61.41 -171.92,92.4 -294.26,92.4 H 2955.95 V 1065.9 h 206.84 v 509.3 h 23.87 c 63.87,0 93.71,-9.04 107.59,-16.5 21.59,-11.85 46.23,-31.26 73.39,-58.22 27.87,-27.22 59.07,-65.04 92.16,-110.91 l 108.68,-177.9 32.89,-46.47 c 4.48,-5.99 7.4,-10.02 9.25,-13.32 l 57.25,-85.98 h 248.79 l -85.09,115.1 c -24.38,32.97 -56.89,82.79 -97.27,148.47" style="fill:#003c78;fill-opacity:1;fill-rule:nonzero;stroke:none" id="path18" inkscape:connector-curvature="0"/><path d="m 1729.48,2088.47 h 401.08 V 1065.9 h 207.74 v 1022.57 h 407.96 v 186.7 H 1729.48 v -186.7" style="fill:#003c78;fill-opacity:1;fill-rule:nonzero;stroke:none" id="path20" inkscape:connector-curvature="0"/><path d="m 6396.88,1399.51 -760.2,875.65 H 5472.37 V 1065.9 h 196.79 v 868 l 753.61,-868 h 172.47 v 1209.26 h -198.36 v -875.65" style="fill:#003c78;fill-opacity:1;fill-rule:nonzero;stroke:none" id="path22" inkscape:connector-curvature="0"/><path d="m 4877.93,1359.47 c -82.99,-81.46 -188.18,-122.57 -312.88,-122.57 -124.2,0 -228.61,40.45 -310.91,120.11 -82.17,79.5 -123.91,180.54 -123.91,300.66 0,123.98 41.74,227.24 123.46,306.58 81.95,79.82 188.55,120.19 316.35,120.19 121.35,0 224.9,-40.86 307.89,-121.2 83.11,-80.4 125.03,-181.1 125.03,-298.83 0,-121.36 -41.92,-223.71 -125.03,-304.94 z m -314.5,932.47 c -185.27,0 -340.7,-59.51 -462.18,-177.17 -121.79,-117.81 -183.57,-268.5 -183.57,-447.99 0,-174.93 61.21,-322.84 182.19,-439.18 120.72,-116.26 273.4,-175.1 454.56,-175.1 188.71,0 347.54,58.84 472.26,174.78 125.02,116.41 188.29,265.39 188.29,442.89 0,177.48 -62.77,326.95 -186.42,444.68 -123.58,117.58 -280.06,177.09 -465.13,177.09" style="fill:#003c78;fill-opacity:1;fill-rule:nonzero;stroke:none" id="path24" inkscape:connector-curvature="0"/></g></g></svg>